<?xml version="1.0" encoding="UTF-8" standalone="no"?>
<!-- Created with Inkscape (http://www.inkscape.org/) -->

<svg
   width="1920"
   height="1080"
   viewBox="0 0 508 285.75"
   version="1.1"
   id="svg1"
   xmlns="http://www.w3.org/2000/svg"
   xmlns:svg="http://www.w3.org/2000/svg">
  <defs
     id="defs1" />
  <path
     style="display:inline;opacity:1;fill:#000000;fill-opacity:1;stroke-width:1.00012;stroke-dasharray:none"
     d="m 326.76043,132.29166 v 7.9375 h 23.8125 v -7.9375 z"
     id="path14" />
  <path
     style="display:inline;opacity:1;fill:#000000;fill-opacity:1;stroke-width:1.00012;stroke-dasharray:none"
     d="m 326.76043,156.10416 v 7.9375 l 39.6875,-7.9375 v -7.9375 z"
     id="path15" />
  <path
     style="opacity:1;fill:#000000;fill-opacity:1;stroke-width:1.00012;stroke-dasharray:none"
     d="m 279.13543,132.29166 v 7.9375 h 15.875 v 23.8125 h 7.9375 v -23.8125 h 15.875 v -7.9375 h -15.875 v -7.9375 h -7.9375 v 7.9375 z"
     id="path13" />
  <path
     style="opacity:1;fill:#000000;fill-opacity:1;stroke-width:1.00012;stroke-dasharray:none"
     d="m 231.51043,132.29166 h 23.8125 v 7.9375 h -23.8125 z"
     id="path11" />
  <path
     style="opacity:1;fill:#000000;fill-opacity:1;stroke-width:1.00012;stroke-dasharray:none"
     d="m 231.51043,156.10416 39.6875,-7.9375 v 7.9375 l -39.6875,7.9375 z"
     id="path12" />
  <path
     style="opacity:1;fill:#000000;fill-opacity:1;stroke-width:1.00012;stroke-dasharray:none"
     d="m 183.88543,124.35416 v 23.8125 h 7.9375 v -7.9375 h 15.875 v 23.8125 h 7.9375 v -23.8125 h 7.9375 v -7.9375 h -31.75 v -7.9375 z"
     id="path10" />
  <path
     style="display:inline;opacity:1;fill:#000000;fill-opacity:1;stroke-width:1.00012;stroke-dasharray:none"
     d="m 141.5521,124.35416 h 29.10416 v 7.9375 h -10.58333 v 7.9375 h 15.875 v 7.9375 h -15.875 l 0.0346,15.875 h -8.13835 l 0.16623,-15.875 h -15.875 v -7.9375 h 15.875 v -7.9375 h -10.58333 z"
     id="path9" />
  <path
     style="display:inline;opacity:1;fill:#000000;fill-opacity:1;stroke-width:1.00012;stroke-dasharray:none"
     d="m 88.635421,132.29166 5e-6,7.9375 H 117.7396 l -5.29167,7.93749 -5.29166,-5.29166 -5.29167,5.29166 15.875,15.87501 5.29167,-5.29167 -5.75469,-5.29166 13.69219,-21.16667 z"
     id="path8" />
  <path
     style="display:inline;opacity:1;fill:#000000;fill-opacity:1;stroke-width:1.00012;stroke-dasharray:none"
     d="m 379.54479,132.29166 -7.8052,31.75 h 7.9375 l 7.9375,-31.75 z"
     id="path16" />
  <path
     style="display:inline;opacity:1;fill:#000000;fill-opacity:1;stroke-width:1.00012;stroke-dasharray:none"
     d="m 403.48958,156.10416 h 7.9375 l -7.9375,-23.8125 h -7.9375 z"
     id="path17" />
  <path
     style="display:inline;opacity:1;fill:#000000;fill-opacity:1;stroke-width:1.00012;stroke-dasharray:none"
     d="m 406.13542,129.64583 h 5.29166 l -2.64583,-7.93749 h -5.29167 z"
     id="path18" />
  <path
     style="display:inline;opacity:1;fill:#000000;fill-opacity:1;stroke-width:1.00012;stroke-dasharray:none"
     d="m 419.36458,129.64583 h -5.29166 l -2.64584,-7.93749 h 5.29167 z"
     id="path19" />
</svg>
