<svg class="svg-icon" style="width: 1em; height: 1em;vertical-align: middle;fill: currentColor;overflow: hidden;" viewBox="0 0 1024 1024" version="1.1" xmlns="http://www.w3.org/2000/svg"><path d="M513.006422 66.024739c-246.293429 0-445.938422 199.647039-445.938422 445.940468 0 246.292406 199.646016 445.939445 445.938422 445.939445s445.941492-199.647039 445.941492-445.939445C958.947913 265.671779 759.299851 66.024739 513.006422 66.024739zM513.006422 876.840382c-201.517643 0-364.873128-163.358555-364.873128-364.876198 0-201.518666 163.355485-364.875175 364.873128-364.875175 201.520713 0 364.875175 163.357532 364.875175 364.875175C877.88262 713.482851 714.527135 876.840382 513.006422 876.840382zM606.845647 641.83709c-11.290137 0-55.579853 69.225641-79.741136 69.225641-6.452969 0-9.612938-5.708002-9.612938-11.387351 0-13.031804 8.839319-33.419134 13.675464-45.611827l57.969273-158.745491c29.063943-79.000262-8.065699-100.161211-42.678008-100.161211-46.743604 0-88.614224 23.613814-120.840182 54.550407-10.516518 10.54824-45.936215 44.74304-45.936215 59.387575 0 4.904707 4.839215 10.613732 10.453073 10.613732 14.514575 0 53.159734-70.840418 82.966597-70.840418 6.452969 0 13.710256 7.323802 8.064676 21.969361l-56.356542 143.324266c-5.64558 13.870916-33.063023 80.610946-33.063023 119.676683 0 30.970362 20.128433 44.776809 49.161676 44.776809 81.387635 0 175.61367-100.970646 175.61367-124.549667C616.524077 646.707005 610.913289 641.83709 606.845647 641.83709zM590.719364 245.317195c-35.420721 0-66.033949 29.290093-66.033949 65.097624 0 33.419134 21.709441 55.386448 54.806233 55.386448 36.196387 0 66.841338-27.677363 66.841338-65.097624C646.298194 267.252787 622.976022 245.317195 590.719364 245.317195z"  /></svg>